<?xml version="1.0" encoding="UTF-8" standalone="no"?><!-- Generator: Gravit.io --><svg xmlns="http://www.w3.org/2000/svg" xmlns:xlink="http://www.w3.org/1999/xlink" style="isolation:isolate" viewBox="0 0 537.002 485.338" width="537.002pt" height="485.338pt"><defs><clipPath id="_clipPath_Z6dZEEjcPgeEsv0MYxDoQodhP8uX6hne"><rect width="537.002" height="485.338"/></clipPath></defs><g clip-path="url(#_clipPath_Z6dZEEjcPgeEsv0MYxDoQodhP8uX6hne)"><mask id="_mask_fWsuMsIsW3XGVXOojtbTIA9BP4XYdAWO" x="-200%" y="-200%" width="400%" height="400%"><rect x="-200%" y="-200%" width="400%" height="400%" style="fill:white;"/><path d=" M 274.825 2.856 L 260.793 9.397 L 258.788 9.713 L 259.21 10.347 L 254.673 14.25 L 254.673 21.531 L 260.582 28.072 L 254.673 38.623 L 249.398 41.999 L 248.659 48.541 L 237.475 49.913 L 238.108 57.087 L 242.118 58.459 L 232.833 71.648 L 218.378 72.914 L 217.745 82.832 L 211.731 88.74 L 208.46 97.392 L 195.271 98.025 L 200.547 117.755 L 207.194 132.315 L 192.634 134.953 L 182.716 129.045 L 178.073 144.133 L 185.353 152.046 L 182.083 164.601 L 178.073 169.244 L 180.817 177.157 L 168.261 179.795 L 158.343 182.432 L 160.981 191.612 L 154.439 193.616 L 151.063 196.887 L 141.145 187.075 L 121.415 188.974 L 116.139 198.259 L 104.217 199.525 L 93.033 201.53 L 88.39 194.988 L 77.839 205.539 L 70.032 198.892 L 65.389 208.81 L 66.022 217.356 L 58.742 219.361 L 55.471 214.718 L 52.2 204.8 L 42.916 212.714 L 36.374 210.076 L 29.094 211.448 L 22.552 219.361 L 30.36 232.549 L 25.085 237.825 L 27.089 249.009 L 20.548 257.555 L 15.905 270.111 L 21.181 279.396 L 39.012 280.662 L 50.196 299.126 L 42.916 305.773 L 48.191 313.686 L 56.104 325.503 L 49.563 334.05 L 39.012 357.789 L 21.181 372.983 L 25.823 382.267 L 21.814 384.905 L 12.001 382.9 L 9.258 404.635 L 3.983 408.645 L 2.928 422.256 L 4.616 421.306 L 15.8 427.953 L 28.988 437.871 L 30.254 445.784 L 40.805 454.33 L 49.457 454.33 L 71.192 445.046 L 80.371 455.597 L 92.927 458.973 L 97.57 451.06 L 103.478 453.697 L 143.044 456.335 L 144.416 423.944 L 153.595 425.315 L 170.793 435.233 L 191.156 439.137 L 199.808 439.137 L 210.992 453.697 L 239.374 452.326 L 250.558 470.157 L 260.476 466.147 L 289.491 470.157 L 291.601 482.29 L 312.07 477.542 L 319.561 471.001 L 330.745 468.152 L 333.489 462.56 L 357.756 460.766 L 342.879 443.041 L 330.745 449.582 L 309.327 431.857 L 313.969 425.315 L 330.745 425.315 L 328.846 409.489 L 328.846 397.355 L 326.103 374.882 L 293.395 359.055 L 295.294 353.463 L 287.803 345.128 L 296.244 341.33 L 298.038 331.095 L 308.377 326.453 L 305.529 319.911 L 314.919 311.471 L 319.561 319.911 L 333.489 315.269 L 340.03 314.319 L 339.081 318.962 L 352.164 318.962 L 364.298 322.76 L 365.247 310.626 L 370.839 310.626 L 391.308 314.319 L 410.933 314.319 L 425.81 309.677 L 429.608 297.543 L 419.373 288.153 L 422.117 278.868 L 427.709 270.533 L 436.994 276.969 L 461.261 268.634 L 465.059 261.143 L 470.651 261.143 L 481.835 261.143 L 480.885 241.623 L 480.885 235.082 L 486.477 235.082 L 496.712 240.674 L 506.946 240.674 L 505.153 229.49 L 510.745 224.742 L 521.929 222.948 L 521.929 213.558 L 534.062 207.966 L 531.214 194.988 L 520.979 194.988 L 511.694 193.089 L 509.795 185.598 L 517.286 183.804 L 517.286 174.414 L 524.672 167.872 L 519.08 165.129 L 503.253 167.872 L 504.203 160.487 L 493.019 155.739 L 490.17 133.371 L 490.17 117.544 L 480.885 111.003 L 481.835 97.92 L 462.21 73.758 L 460.311 55.083 L 453.875 55.083 L 451.026 36.408 L 437.943 38.307 L 436.149 26.173 L 434.25 23.324 L 415.575 39.256 L 415.575 55.083 L 410.933 55.083 L 409.034 69.96 L 404.391 71.859 L 400.698 80.194 L 380.124 80.194 L 378.33 77.451 L 368.94 77.451 L 363.348 86.736 L 355.962 85.786 L 359.655 74.602 L 351.214 70.909 L 359.655 51.284 L 348.471 42.949 L 344.673 18.682 L 334.438 15.939 L 326.947 23.324 L 323.254 16.783 L 312.07 27.967 L 304.579 28.916 L 291.601 10.347 L 274.825 2.856 Z " fill-rule="evenodd" fill="black" fill-opacity="0.24581401" stroke="none"/></mask><path d=" M 274.825 2.856 L 260.793 9.397 L 258.788 9.713 L 259.21 10.347 L 254.673 14.25 L 254.673 21.531 L 260.582 28.072 L 254.673 38.623 L 249.398 41.999 L 248.659 48.541 L 237.475 49.913 L 238.108 57.087 L 242.118 58.459 L 232.833 71.648 L 218.378 72.914 L 217.745 82.832 L 211.731 88.74 L 208.46 97.392 L 195.271 98.025 L 200.547 117.755 L 207.194 132.315 L 192.634 134.953 L 182.716 129.045 L 178.073 144.133 L 185.353 152.046 L 182.083 164.601 L 178.073 169.244 L 180.817 177.157 L 168.261 179.795 L 158.343 182.432 L 160.981 191.612 L 154.439 193.616 L 151.063 196.887 L 141.145 187.075 L 121.415 188.974 L 116.139 198.259 L 104.217 199.525 L 93.033 201.53 L 88.39 194.988 L 77.839 205.539 L 70.032 198.892 L 65.389 208.81 L 66.022 217.356 L 58.742 219.361 L 55.471 214.718 L 52.2 204.8 L 42.916 212.714 L 36.374 210.076 L 29.094 211.448 L 22.552 219.361 L 30.36 232.549 L 25.085 237.825 L 27.089 249.009 L 20.548 257.555 L 15.905 270.111 L 21.181 279.396 L 39.012 280.662 L 50.196 299.126 L 42.916 305.773 L 48.191 313.686 L 56.104 325.503 L 49.563 334.05 L 39.012 357.789 L 21.181 372.983 L 25.823 382.267 L 21.814 384.905 L 12.001 382.9 L 9.258 404.635 L 3.983 408.645 L 2.928 422.256 L 4.616 421.306 L 15.8 427.953 L 28.988 437.871 L 30.254 445.784 L 40.805 454.33 L 49.457 454.33 L 71.192 445.046 L 80.371 455.597 L 92.927 458.973 L 97.57 451.06 L 103.478 453.697 L 143.044 456.335 L 144.416 423.944 L 153.595 425.315 L 170.793 435.233 L 191.156 439.137 L 199.808 439.137 L 210.992 453.697 L 239.374 452.326 L 250.558 470.157 L 260.476 466.147 L 289.491 470.157 L 291.601 482.29 L 312.07 477.542 L 319.561 471.001 L 330.745 468.152 L 333.489 462.56 L 357.756 460.766 L 342.879 443.041 L 330.745 449.582 L 309.327 431.857 L 313.969 425.315 L 330.745 425.315 L 328.846 409.489 L 328.846 397.355 L 326.103 374.882 L 293.395 359.055 L 295.294 353.463 L 287.803 345.128 L 296.244 341.33 L 298.038 331.095 L 308.377 326.453 L 305.529 319.911 L 314.919 311.471 L 319.561 319.911 L 333.489 315.269 L 340.03 314.319 L 339.081 318.962 L 352.164 318.962 L 364.298 322.76 L 365.247 310.626 L 370.839 310.626 L 391.308 314.319 L 410.933 314.319 L 425.81 309.677 L 429.608 297.543 L 419.373 288.153 L 422.117 278.868 L 427.709 270.533 L 436.994 276.969 L 461.261 268.634 L 465.059 261.143 L 470.651 261.143 L 481.835 261.143 L 480.885 241.623 L 480.885 235.082 L 486.477 235.082 L 496.712 240.674 L 506.946 240.674 L 505.153 229.49 L 510.745 224.742 L 521.929 222.948 L 521.929 213.558 L 534.062 207.966 L 531.214 194.988 L 520.979 194.988 L 511.694 193.089 L 509.795 185.598 L 517.286 183.804 L 517.286 174.414 L 524.672 167.872 L 519.08 165.129 L 503.253 167.872 L 504.203 160.487 L 493.019 155.739 L 490.17 133.371 L 490.17 117.544 L 480.885 111.003 L 481.835 97.92 L 462.21 73.758 L 460.311 55.083 L 453.875 55.083 L 451.026 36.408 L 437.943 38.307 L 436.149 26.173 L 434.25 23.324 L 415.575 39.256 L 415.575 55.083 L 410.933 55.083 L 409.034 69.96 L 404.391 71.859 L 400.698 80.194 L 380.124 80.194 L 378.33 77.451 L 368.94 77.451 L 363.348 86.736 L 355.962 85.786 L 359.655 74.602 L 351.214 70.909 L 359.655 51.284 L 348.471 42.949 L 344.673 18.682 L 334.438 15.939 L 326.947 23.324 L 323.254 16.783 L 312.07 27.967 L 304.579 28.916 L 291.601 10.347 L 274.825 2.856 Z " fill-rule="evenodd" fill="rgb(218,220,0)" fill-opacity="0.24581401" mask="url(#_mask_fWsuMsIsW3XGVXOojtbTIA9BP4XYdAWO)" vector-effect="non-scaling-stroke" stroke-width="6.753" stroke="rgb(127,127,127)" stroke-linejoin="miter" stroke-linecap="butt" stroke-miterlimit="4"/><path d=" M 274.825 2.856 L 260.793 9.397 L 258.788 9.713 L 259.21 10.347 L 254.673 14.25 L 254.673 21.531 L 260.582 28.072 L 254.673 38.623 L 249.398 41.999 L 248.659 48.541 L 237.475 49.913 L 238.108 57.087 L 242.118 58.459 L 232.833 71.648 L 218.378 72.914 L 217.745 82.832 L 211.731 88.74 L 208.46 97.392 L 195.271 98.025 L 200.547 117.755 L 207.194 132.315 L 192.634 134.953 L 182.716 129.045 L 178.073 144.133 L 185.353 152.046 L 182.083 164.601 L 178.073 169.244 L 180.817 177.157 L 168.261 179.795 L 158.343 182.432 L 160.981 191.612 L 154.439 193.616 L 151.063 196.887 L 141.145 187.075 L 121.415 188.974 L 116.139 198.259 L 104.217 199.525 L 93.033 201.53 L 88.39 194.988 L 77.839 205.539 L 70.032 198.892 L 65.389 208.81 L 66.022 217.356 L 58.742 219.361 L 55.471 214.718 L 52.2 204.8 L 42.916 212.714 L 36.374 210.076 L 29.094 211.448 L 22.552 219.361 L 30.36 232.549 L 25.085 237.825 L 27.089 249.009 L 20.548 257.555 L 15.905 270.111 L 21.181 279.396 L 39.012 280.662 L 50.196 299.126 L 42.916 305.773 L 48.191 313.686 L 56.104 325.503 L 49.563 334.05 L 39.012 357.789 L 21.181 372.983 L 25.823 382.267 L 21.814 384.905 L 12.001 382.9 L 9.258 404.635 L 3.983 408.645 L 2.928 422.256 L 4.616 421.306 L 15.8 427.953 L 28.988 437.871 L 30.254 445.784 L 40.805 454.33 L 49.457 454.33 L 71.192 445.046 L 80.371 455.597 L 92.927 458.973 L 97.57 451.06 L 103.478 453.697 L 143.044 456.335 L 144.416 423.944 L 153.595 425.315 L 170.793 435.233 L 191.156 439.137 L 199.808 439.137 L 210.992 453.697 L 239.374 452.326 L 250.558 470.157 L 260.476 466.147 L 289.491 470.157 L 291.601 482.29 L 312.07 477.542 L 319.561 471.001 L 330.745 468.152 L 333.489 462.56 L 357.756 460.766 L 342.879 443.041 L 330.745 449.582 L 309.327 431.857 L 313.969 425.315 L 330.745 425.315 L 328.846 409.489 L 328.846 397.355 L 326.103 374.882 L 293.395 359.055 L 295.294 353.463 L 287.803 345.128 L 296.244 341.33 L 298.038 331.095 L 308.377 326.453 L 305.529 319.911 L 314.919 311.471 L 319.561 319.911 L 333.489 315.269 L 340.03 314.319 L 339.081 318.962 L 352.164 318.962 L 364.298 322.76 L 365.247 310.626 L 370.839 310.626 L 391.308 314.319 L 410.933 314.319 L 425.81 309.677 L 429.608 297.543 L 419.373 288.153 L 422.117 278.868 L 427.709 270.533 L 436.994 276.969 L 461.261 268.634 L 465.059 261.143 L 470.651 261.143 L 481.835 261.143 L 480.885 241.623 L 480.885 235.082 L 486.477 235.082 L 496.712 240.674 L 506.946 240.674 L 505.153 229.49 L 510.745 224.742 L 521.929 222.948 L 521.929 213.558 L 534.062 207.966 L 531.214 194.988 L 520.979 194.988 L 511.694 193.089 L 509.795 185.598 L 517.286 183.804 L 517.286 174.414 L 524.672 167.872 L 519.08 165.129 L 503.253 167.872 L 504.203 160.487 L 493.019 155.739 L 490.17 133.371 L 490.17 117.544 L 480.885 111.003 L 481.835 97.92 L 462.21 73.758 L 460.311 55.083 L 453.875 55.083 L 451.026 36.408 L 437.943 38.307 L 436.149 26.173 L 434.25 23.324 L 415.575 39.256 L 415.575 55.083 L 410.933 55.083 L 409.034 69.96 L 404.391 71.859 L 400.698 80.194 L 380.124 80.194 L 378.33 77.451 L 368.94 77.451 L 363.348 86.736 L 355.962 85.786 L 359.655 74.602 L 351.214 70.909 L 359.655 51.284 L 348.471 42.949 L 344.673 18.682 L 334.438 15.939 L 326.947 23.324 L 323.254 16.783 L 312.07 27.967 L 304.579 28.916 L 291.601 10.347 L 274.825 2.856 Z " fill-rule="evenodd" fill="rgb(218,220,0)" fill-opacity="0.24581401"/><g><mask id="_mask_MtdQsvhnlvBjY62sYpULLvLN50YBDi98" x="-200%" y="-200%" width="400%" height="400%"><rect x="-200%" y="-200%" width="400%" height="400%" style="fill:white;"/><path d=" M 434.25 23.324 L 415.575 39.256 L 415.575 55.083 L 410.933 55.083 L 409.034 69.96 L 404.391 71.859 L 400.698 80.194 L 380.124 80.194 L 378.33 77.451 L 368.94 77.451 L 363.348 86.736 L 361.343 86.525 L 360.183 90.217 L 355.962 94.965 L 344.04 94.965 L 341.613 98.025 L 335.704 97.392 L 324.942 109.315 L 321.355 108.154 L 313.653 114.696 L 315.974 126.618 L 321.988 135.586 L 317.346 140.44 L 318.401 154.051 L 327.897 154.684 L 322.516 165.446 L 326.736 176.208 L 332.117 173.148 L 334.544 178.529 L 342.246 170.827 L 353.641 170.194 L 364.931 178.529 L 384.661 182.116 L 391.835 194.672 L 401.964 199.42 L 407.345 213.136 L 406.712 218.517 L 413.254 230.545 L 413.254 237.087 L 425.176 252.596 L 436.572 258.505 L 443.746 256.711 L 447.333 251.963 L 452.714 253.23 L 465.059 261.143 L 465.164 261.143 L 470.651 261.143 L 481.835 261.143 L 480.885 241.623 L 480.885 235.082 L 486.477 235.082 L 496.712 240.674 L 506.946 240.674 L 505.153 229.49 L 510.745 224.742 L 521.929 222.948 L 521.929 213.558 L 534.062 207.966 L 531.214 194.988 L 520.979 194.988 L 511.694 193.089 L 509.795 185.598 L 517.286 183.804 L 517.286 174.414 L 524.672 167.872 L 519.08 165.129 L 503.253 167.872 L 504.203 160.487 L 493.019 155.739 L 490.17 133.371 L 490.17 117.544 L 480.885 111.003 L 481.835 97.92 L 462.21 73.758 L 460.311 55.083 L 453.875 55.083 L 451.026 36.408 L 437.943 38.307 L 436.149 26.173 L 434.25 23.324 Z " fill-rule="evenodd" fill="black" stroke="none"/></mask><path d=" M 434.25 23.324 L 415.575 39.256 L 415.575 55.083 L 410.933 55.083 L 409.034 69.96 L 404.391 71.859 L 400.698 80.194 L 380.124 80.194 L 378.33 77.451 L 368.94 77.451 L 363.348 86.736 L 361.343 86.525 L 360.183 90.217 L 355.962 94.965 L 344.04 94.965 L 341.613 98.025 L 335.704 97.392 L 324.942 109.315 L 321.355 108.154 L 313.653 114.696 L 315.974 126.618 L 321.988 135.586 L 317.346 140.44 L 318.401 154.051 L 327.897 154.684 L 322.516 165.446 L 326.736 176.208 L 332.117 173.148 L 334.544 178.529 L 342.246 170.827 L 353.641 170.194 L 364.931 178.529 L 384.661 182.116 L 391.835 194.672 L 401.964 199.42 L 407.345 213.136 L 406.712 218.517 L 413.254 230.545 L 413.254 237.087 L 425.176 252.596 L 436.572 258.505 L 443.746 256.711 L 447.333 251.963 L 452.714 253.23 L 465.059 261.143 L 465.164 261.143 L 470.651 261.143 L 481.835 261.143 L 480.885 241.623 L 480.885 235.082 L 486.477 235.082 L 496.712 240.674 L 506.946 240.674 L 505.153 229.49 L 510.745 224.742 L 521.929 222.948 L 521.929 213.558 L 534.062 207.966 L 531.214 194.988 L 520.979 194.988 L 511.694 193.089 L 509.795 185.598 L 517.286 183.804 L 517.286 174.414 L 524.672 167.872 L 519.08 165.129 L 503.253 167.872 L 504.203 160.487 L 493.019 155.739 L 490.17 133.371 L 490.17 117.544 L 480.885 111.003 L 481.835 97.92 L 462.21 73.758 L 460.311 55.083 L 453.875 55.083 L 451.026 36.408 L 437.943 38.307 L 436.149 26.173 L 434.25 23.324 Z " fill-rule="evenodd" fill="rgb(241,114,35)" mask="url(#_mask_MtdQsvhnlvBjY62sYpULLvLN50YBDi98)" vector-effect="non-scaling-stroke" stroke-width="3.376" stroke="rgb(93,93,93)" stroke-opacity="0.51459901" stroke-linejoin="miter" stroke-linecap="butt" stroke-miterlimit="4"/><path d=" M 434.25 23.324 L 415.575 39.256 L 415.575 55.083 L 410.933 55.083 L 409.034 69.96 L 404.391 71.859 L 400.698 80.194 L 380.124 80.194 L 378.33 77.451 L 368.94 77.451 L 363.348 86.736 L 361.343 86.525 L 360.183 90.217 L 355.962 94.965 L 344.04 94.965 L 341.613 98.025 L 335.704 97.392 L 324.942 109.315 L 321.355 108.154 L 313.653 114.696 L 315.974 126.618 L 321.988 135.586 L 317.346 140.44 L 318.401 154.051 L 327.897 154.684 L 322.516 165.446 L 326.736 176.208 L 332.117 173.148 L 334.544 178.529 L 342.246 170.827 L 353.641 170.194 L 364.931 178.529 L 384.661 182.116 L 391.835 194.672 L 401.964 199.42 L 407.345 213.136 L 406.712 218.517 L 413.254 230.545 L 413.254 237.087 L 425.176 252.596 L 436.572 258.505 L 443.746 256.711 L 447.333 251.963 L 452.714 253.23 L 465.059 261.143 L 465.164 261.143 L 470.651 261.143 L 481.835 261.143 L 480.885 241.623 L 480.885 235.082 L 486.477 235.082 L 496.712 240.674 L 506.946 240.674 L 505.153 229.49 L 510.745 224.742 L 521.929 222.948 L 521.929 213.558 L 534.062 207.966 L 531.214 194.988 L 520.979 194.988 L 511.694 193.089 L 509.795 185.598 L 517.286 183.804 L 517.286 174.414 L 524.672 167.872 L 519.08 165.129 L 503.253 167.872 L 504.203 160.487 L 493.019 155.739 L 490.17 133.371 L 490.17 117.544 L 480.885 111.003 L 481.835 97.92 L 462.21 73.758 L 460.311 55.083 L 453.875 55.083 L 451.026 36.408 L 437.943 38.307 L 436.149 26.173 L 434.25 23.324 Z " fill-rule="evenodd" fill="rgb(241,114,35)"/><circle vector-effect="non-scaling-stroke" cx="409.0674917089136" cy="139.9233314831406" r="7.913210969695797" fill="rgb(0,0,0)"/><text transform="matrix(3.376,0,0,3.376,361.925,121.784)" style="font-family:'Open Sans';font-weight:400;font-size:8px;font-style:italic;font-variant-ligatures:none;fill:[Object GRGBColor];stroke:none;">Aveyron</text></g><g><mask id="_mask_ckqub3kF0CMgBJ0nlOOu6LYIPMabW8tE" x="-200%" y="-200%" width="400%" height="400%"><rect x="-200%" y="-200%" width="400%" height="400%" style="fill:white;"/><path d=" M 266.49 222.737 L 256.889 226.325 L 253.935 231.073 L 250.347 226.958 L 243.806 226.325 L 242.54 232.339 L 238.425 234.027 L 244.333 237.087 L 240.218 243.628 L 225.236 247.849 L 218.694 240.041 L 212.786 240.041 L 207.932 242.995 L 190.629 242.995 L 188.835 243.734 L 190.629 250.17 L 200.758 260.299 L 200.23 265.68 L 207.932 273.487 L 212.786 273.487 L 215.107 279.396 L 221.121 280.029 L 222.915 285.41 L 216.901 287.837 L 204.345 293.218 L 198.437 306.934 L 193.689 321.178 L 190.629 325.398 L 181.133 318.856 L 158.976 317.063 L 147.053 332.573 L 140.512 336.16 L 136.292 342.069 L 131.544 349.243 L 131.544 353.464 L 123.841 356.418 L 117.827 366.547 L 117.194 371.928 L 127.956 379.735 L 129.75 387.438 L 126.163 393.452 L 133.337 391.025 L 136.925 394.085 L 139.879 406.535 L 131.544 411.388 L 132.177 417.93 L 127.956 422.045 L 122.048 419.09 L 115.401 419.09 L 116.245 454.542 L 143.044 456.335 L 144.416 423.944 L 153.595 425.316 L 167.206 433.229 L 172.798 428.059 L 170.371 424.471 L 170.371 412.549 L 176.28 405.374 L 191.895 401.154 L 194.216 392.291 L 190.629 389.864 L 190.101 378.469 L 203.818 370.134 L 211.52 369.606 L 219.327 371.928 L 225.869 377.942 L 230.089 378.469 L 233.677 372.561 L 230.617 368.34 L 225.236 366.547 L 224.708 364.753 L 228.823 358.845 L 243.173 357.578 L 244.966 354.097 L 242.54 349.876 L 234.204 343.862 L 235.998 340.275 L 240.218 337.321 L 244.333 338.481 L 250.98 347.45 L 251.508 353.464 L 262.903 354.624 L 265.224 349.243 L 259.843 342.702 L 263.43 343.862 L 276.619 349.876 L 283.794 348.716 L 289.069 346.5 L 287.803 345.128 L 296.244 341.33 L 298.038 331.096 L 308.377 326.453 L 305.529 319.912 L 314.919 311.471 L 319.561 319.912 L 333.489 315.269 L 336.126 314.847 L 336.337 310.521 L 336.337 302.08 L 329.163 303.347 L 320.195 300.92 L 312.387 291.424 L 309.433 287.204 L 293.923 280.662 L 290.335 275.281 L 295.083 273.487 L 295.083 266.946 L 290.335 261.565 L 284.321 251.963 L 283.794 243.628 L 282 242.468 L 274.825 234.027 L 271.871 225.164 L 266.49 222.737 Z " fill-rule="evenodd" fill="black" stroke="none"/></mask><path d=" M 266.49 222.737 L 256.889 226.325 L 253.935 231.073 L 250.347 226.958 L 243.806 226.325 L 242.54 232.339 L 238.425 234.027 L 244.333 237.087 L 240.218 243.628 L 225.236 247.849 L 218.694 240.041 L 212.786 240.041 L 207.932 242.995 L 190.629 242.995 L 188.835 243.734 L 190.629 250.17 L 200.758 260.299 L 200.23 265.68 L 207.932 273.487 L 212.786 273.487 L 215.107 279.396 L 221.121 280.029 L 222.915 285.41 L 216.901 287.837 L 204.345 293.218 L 198.437 306.934 L 193.689 321.178 L 190.629 325.398 L 181.133 318.856 L 158.976 317.063 L 147.053 332.573 L 140.512 336.16 L 136.292 342.069 L 131.544 349.243 L 131.544 353.464 L 123.841 356.418 L 117.827 366.547 L 117.194 371.928 L 127.956 379.735 L 129.75 387.438 L 126.163 393.452 L 133.337 391.025 L 136.925 394.085 L 139.879 406.535 L 131.544 411.388 L 132.177 417.93 L 127.956 422.045 L 122.048 419.09 L 115.401 419.09 L 116.245 454.542 L 143.044 456.335 L 144.416 423.944 L 153.595 425.316 L 167.206 433.229 L 172.798 428.059 L 170.371 424.471 L 170.371 412.549 L 176.28 405.374 L 191.895 401.154 L 194.216 392.291 L 190.629 389.864 L 190.101 378.469 L 203.818 370.134 L 211.52 369.606 L 219.327 371.928 L 225.869 377.942 L 230.089 378.469 L 233.677 372.561 L 230.617 368.34 L 225.236 366.547 L 224.708 364.753 L 228.823 358.845 L 243.173 357.578 L 244.966 354.097 L 242.54 349.876 L 234.204 343.862 L 235.998 340.275 L 240.218 337.321 L 244.333 338.481 L 250.98 347.45 L 251.508 353.464 L 262.903 354.624 L 265.224 349.243 L 259.843 342.702 L 263.43 343.862 L 276.619 349.876 L 283.794 348.716 L 289.069 346.5 L 287.803 345.128 L 296.244 341.33 L 298.038 331.096 L 308.377 326.453 L 305.529 319.912 L 314.919 311.471 L 319.561 319.912 L 333.489 315.269 L 336.126 314.847 L 336.337 310.521 L 336.337 302.08 L 329.163 303.347 L 320.195 300.92 L 312.387 291.424 L 309.433 287.204 L 293.923 280.662 L 290.335 275.281 L 295.083 273.487 L 295.083 266.946 L 290.335 261.565 L 284.321 251.963 L 283.794 243.628 L 282 242.468 L 274.825 234.027 L 271.871 225.164 L 266.49 222.737 Z " fill-rule="evenodd" fill="none" mask="url(#_mask_ckqub3kF0CMgBJ0nlOOu6LYIPMabW8tE)" vector-effect="non-scaling-stroke" stroke-width="3.376" stroke="rgb(93,93,93)" stroke-opacity="0.51459901" stroke-linejoin="miter" stroke-linecap="butt" stroke-miterlimit="4"/><path d=" M 266.49 222.737 L 256.889 226.325 L 253.935 231.073 L 250.347 226.958 L 243.806 226.325 L 242.54 232.339 L 238.425 234.027 L 244.333 237.087 L 240.218 243.628 L 225.236 247.849 L 218.694 240.041 L 212.786 240.041 L 207.932 242.995 L 190.629 242.995 L 188.835 243.734 L 190.629 250.17 L 200.758 260.299 L 200.23 265.68 L 207.932 273.487 L 212.786 273.487 L 215.107 279.396 L 221.121 280.029 L 222.915 285.41 L 216.901 287.837 L 204.345 293.218 L 198.437 306.934 L 193.689 321.178 L 190.629 325.398 L 181.133 318.856 L 158.976 317.063 L 147.053 332.573 L 140.512 336.16 L 136.292 342.069 L 131.544 349.243 L 131.544 353.464 L 123.841 356.418 L 117.827 366.547 L 117.194 371.928 L 127.956 379.735 L 129.75 387.438 L 126.163 393.452 L 133.337 391.025 L 136.925 394.085 L 139.879 406.535 L 131.544 411.388 L 132.177 417.93 L 127.956 422.045 L 122.048 419.09 L 115.401 419.09 L 116.245 454.542 L 143.044 456.335 L 144.416 423.944 L 153.595 425.316 L 167.206 433.229 L 172.798 428.059 L 170.371 424.471 L 170.371 412.549 L 176.28 405.374 L 191.895 401.154 L 194.216 392.291 L 190.629 389.864 L 190.101 378.469 L 203.818 370.134 L 211.52 369.606 L 219.327 371.928 L 225.869 377.942 L 230.089 378.469 L 233.677 372.561 L 230.617 368.34 L 225.236 366.547 L 224.708 364.753 L 228.823 358.845 L 243.173 357.578 L 244.966 354.097 L 242.54 349.876 L 234.204 343.862 L 235.998 340.275 L 240.218 337.321 L 244.333 338.481 L 250.98 347.45 L 251.508 353.464 L 262.903 354.624 L 265.224 349.243 L 259.843 342.702 L 263.43 343.862 L 276.619 349.876 L 283.794 348.716 L 289.069 346.5 L 287.803 345.128 L 296.244 341.33 L 298.038 331.096 L 308.377 326.453 L 305.529 319.912 L 314.919 311.471 L 319.561 319.912 L 333.489 315.269 L 336.126 314.847 L 336.337 310.521 L 336.337 302.08 L 329.163 303.347 L 320.195 300.92 L 312.387 291.424 L 309.433 287.204 L 293.923 280.662 L 290.335 275.281 L 295.083 273.487 L 295.083 266.946 L 290.335 261.565 L 284.321 251.963 L 283.794 243.628 L 282 242.468 L 274.825 234.027 L 271.871 225.164 L 266.49 222.737 Z " fill-rule="evenodd" fill="none"/><circle vector-effect="non-scaling-stroke" cx="253.32537091525955" cy="283.54182221813517" r="7.913210969695783" fill="rgb(0,0,0)"/><text transform="matrix(3.376,0,0,3.376,211.106,309.142)" style="font-family:'Open Sans';font-weight:400;font-size:8px;font-style:italic;font-variant-ligatures:none;fill:[Object GRGBColor];stroke:none;">Haute-</text><text transform="matrix(3.376,0,0,3.376,198.999,336.152)" style="font-family:'Open Sans';font-weight:400;font-size:8px;font-style:italic;font-variant-ligatures:none;fill:[Object GRGBColor];stroke:none;">Garonne</text></g><g><mask id="_mask_t3KHkDqytdiawW5PAc7d3xP8SNkjgKwg" x="-200%" y="-200%" width="400%" height="400%"><rect x="-200%" y="-200%" width="400%" height="400%" style="fill:white;"/><path d=" M 141.145 187.075 L 121.415 188.974 L 116.139 198.259 L 104.217 199.525 L 93.033 201.53 L 88.39 194.988 L 77.839 205.539 L 70.032 198.892 L 65.389 208.81 L 66.022 217.356 L 58.742 219.361 L 55.471 214.719 L 52.2 204.801 L 42.916 212.714 L 36.374 210.076 L 29.094 211.448 L 22.552 219.361 L 30.36 232.55 L 25.085 237.825 L 27.089 249.009 L 20.548 257.555 L 15.905 270.111 L 21.181 279.396 L 37.851 280.556 L 44.393 277.075 L 54.522 277.075 L 53.994 288.364 L 61.696 292.585 L 69.504 293.745 L 73.091 303.347 L 74.885 305.14 L 73.724 311.049 L 71.298 313.475 L 78.472 318.223 L 79 323.604 L 87.968 323.604 L 90.395 321.178 L 98.097 321.178 L 100.524 326.559 L 108.859 326.559 L 111.286 331.412 L 127.429 331.412 L 139.457 337.637 L 140.512 336.16 L 147.053 332.573 L 158.976 317.063 L 181.133 318.856 L 190.629 325.398 L 193.689 321.178 L 198.437 306.934 L 204.345 293.218 L 216.901 287.837 L 222.915 285.41 L 221.121 280.029 L 215.107 279.396 L 212.786 273.487 L 207.932 273.487 L 200.23 265.68 L 200.758 260.299 L 190.629 250.17 L 188.835 243.734 L 182.294 246.582 L 180.5 242.995 L 184.72 236.454 L 179.867 231.706 L 179.867 223.37 L 175.752 219.15 L 162.563 218.517 L 162.563 210.815 L 169.738 205.434 L 169.738 199.42 L 177.546 195.832 L 173.325 193.511 L 168.577 195.832 L 158.976 195.832 L 156.022 193.089 L 154.439 193.617 L 151.063 196.887 L 141.145 187.075 Z " fill-rule="evenodd" fill="black" stroke="none"/></mask><path d=" M 141.145 187.075 L 121.415 188.974 L 116.139 198.259 L 104.217 199.525 L 93.033 201.53 L 88.39 194.988 L 77.839 205.539 L 70.032 198.892 L 65.389 208.81 L 66.022 217.356 L 58.742 219.361 L 55.471 214.719 L 52.2 204.801 L 42.916 212.714 L 36.374 210.076 L 29.094 211.448 L 22.552 219.361 L 30.36 232.55 L 25.085 237.825 L 27.089 249.009 L 20.548 257.555 L 15.905 270.111 L 21.181 279.396 L 37.851 280.556 L 44.393 277.075 L 54.522 277.075 L 53.994 288.364 L 61.696 292.585 L 69.504 293.745 L 73.091 303.347 L 74.885 305.14 L 73.724 311.049 L 71.298 313.475 L 78.472 318.223 L 79 323.604 L 87.968 323.604 L 90.395 321.178 L 98.097 321.178 L 100.524 326.559 L 108.859 326.559 L 111.286 331.412 L 127.429 331.412 L 139.457 337.637 L 140.512 336.16 L 147.053 332.573 L 158.976 317.063 L 181.133 318.856 L 190.629 325.398 L 193.689 321.178 L 198.437 306.934 L 204.345 293.218 L 216.901 287.837 L 222.915 285.41 L 221.121 280.029 L 215.107 279.396 L 212.786 273.487 L 207.932 273.487 L 200.23 265.68 L 200.758 260.299 L 190.629 250.17 L 188.835 243.734 L 182.294 246.582 L 180.5 242.995 L 184.72 236.454 L 179.867 231.706 L 179.867 223.37 L 175.752 219.15 L 162.563 218.517 L 162.563 210.815 L 169.738 205.434 L 169.738 199.42 L 177.546 195.832 L 173.325 193.511 L 168.577 195.832 L 158.976 195.832 L 156.022 193.089 L 154.439 193.617 L 151.063 196.887 L 141.145 187.075 Z " fill-rule="evenodd" fill="rgb(241,114,35)" mask="url(#_mask_t3KHkDqytdiawW5PAc7d3xP8SNkjgKwg)" vector-effect="non-scaling-stroke" stroke-width="3.376" stroke="rgb(93,93,93)" stroke-opacity="0.51459901" stroke-linejoin="miter" stroke-linecap="butt" stroke-miterlimit="4"/><path d=" M 141.145 187.075 L 121.415 188.974 L 116.139 198.259 L 104.217 199.525 L 93.033 201.53 L 88.39 194.988 L 77.839 205.539 L 70.032 198.892 L 65.389 208.81 L 66.022 217.356 L 58.742 219.361 L 55.471 214.719 L 52.2 204.801 L 42.916 212.714 L 36.374 210.076 L 29.094 211.448 L 22.552 219.361 L 30.36 232.55 L 25.085 237.825 L 27.089 249.009 L 20.548 257.555 L 15.905 270.111 L 21.181 279.396 L 37.851 280.556 L 44.393 277.075 L 54.522 277.075 L 53.994 288.364 L 61.696 292.585 L 69.504 293.745 L 73.091 303.347 L 74.885 305.14 L 73.724 311.049 L 71.298 313.475 L 78.472 318.223 L 79 323.604 L 87.968 323.604 L 90.395 321.178 L 98.097 321.178 L 100.524 326.559 L 108.859 326.559 L 111.286 331.412 L 127.429 331.412 L 139.457 337.637 L 140.512 336.16 L 147.053 332.573 L 158.976 317.063 L 181.133 318.856 L 190.629 325.398 L 193.689 321.178 L 198.437 306.934 L 204.345 293.218 L 216.901 287.837 L 222.915 285.41 L 221.121 280.029 L 215.107 279.396 L 212.786 273.487 L 207.932 273.487 L 200.23 265.68 L 200.758 260.299 L 190.629 250.17 L 188.835 243.734 L 182.294 246.582 L 180.5 242.995 L 184.72 236.454 L 179.867 231.706 L 179.867 223.37 L 175.752 219.15 L 162.563 218.517 L 162.563 210.815 L 169.738 205.434 L 169.738 199.42 L 177.546 195.832 L 173.325 193.511 L 168.577 195.832 L 158.976 195.832 L 156.022 193.089 L 154.439 193.617 L 151.063 196.887 L 141.145 187.075 Z " fill-rule="evenodd" fill="rgb(241,114,35)"/><circle vector-effect="non-scaling-stroke" cx="134.88802580338415" cy="270.4856571750147" r="7.9132109696957755" fill="rgb(0,0,0)"/><text transform="matrix(3.376,0,0,3.376,58.637,254.443)" style="font-family:'Open Sans';font-weight:400;font-size:8px;font-style:italic;font-variant-ligatures:none;fill:[Object GRGBColor];stroke:none;">Gers</text></g><g><mask id="_mask_fsTkVBpWhVafN7TUOsh7P6K25dnZ7pgZ" x="-200%" y="-200%" width="400%" height="400%"><rect x="-200%" y="-200%" width="400%" height="400%" style="fill:white;"/><path d=" M 274.825 2.856 L 260.793 9.397 L 258.788 9.713 L 259.21 10.347 L 254.673 14.25 L 254.673 21.531 L 260.582 28.072 L 254.673 38.623 L 249.398 41.999 L 248.659 48.541 L 237.475 49.913 L 238.108 57.087 L 242.118 58.459 L 232.833 71.648 L 218.378 72.914 L 217.745 82.832 L 211.731 88.74 L 208.46 97.392 L 195.271 98.025 L 200.547 117.755 L 206.139 129.994 L 214.58 129.678 L 215.107 133.16 L 210.359 138.541 L 213.946 145.715 L 219.327 145.715 L 225.236 152.257 L 230.617 152.257 L 234.837 147.509 L 235.998 148.775 L 235.998 154.684 L 237.792 162.491 L 250.347 163.019 L 260.476 152.257 L 265.857 151.729 L 267.651 154.684 L 270.605 161.225 L 275.459 161.225 L 277.252 149.303 L 287.381 150.569 L 293.29 143.394 L 302.891 145.715 L 317.24 139.174 L 317.346 140.44 L 321.988 135.586 L 315.974 126.618 L 313.653 114.696 L 321.355 108.154 L 324.942 109.315 L 335.704 97.392 L 341.613 98.025 L 344.039 94.965 L 355.962 94.965 L 360.183 90.217 L 361.343 86.525 L 355.962 85.786 L 359.655 74.602 L 351.214 70.909 L 359.655 51.284 L 348.471 42.949 L 344.673 18.682 L 334.438 15.939 L 326.947 23.324 L 323.254 16.783 L 312.07 27.967 L 304.579 28.916 L 291.601 10.347 L 274.825 2.856 Z " fill-rule="evenodd" fill="black" stroke="none"/></mask><path d=" M 274.825 2.856 L 260.793 9.397 L 258.788 9.713 L 259.21 10.347 L 254.673 14.25 L 254.673 21.531 L 260.582 28.072 L 254.673 38.623 L 249.398 41.999 L 248.659 48.541 L 237.475 49.913 L 238.108 57.087 L 242.118 58.459 L 232.833 71.648 L 218.378 72.914 L 217.745 82.832 L 211.731 88.74 L 208.46 97.392 L 195.271 98.025 L 200.547 117.755 L 206.139 129.994 L 214.58 129.678 L 215.107 133.16 L 210.359 138.541 L 213.946 145.715 L 219.327 145.715 L 225.236 152.257 L 230.617 152.257 L 234.837 147.509 L 235.998 148.775 L 235.998 154.684 L 237.792 162.491 L 250.347 163.019 L 260.476 152.257 L 265.857 151.729 L 267.651 154.684 L 270.605 161.225 L 275.459 161.225 L 277.252 149.303 L 287.381 150.569 L 293.29 143.394 L 302.891 145.715 L 317.24 139.174 L 317.346 140.44 L 321.988 135.586 L 315.974 126.618 L 313.653 114.696 L 321.355 108.154 L 324.942 109.315 L 335.704 97.392 L 341.613 98.025 L 344.039 94.965 L 355.962 94.965 L 360.183 90.217 L 361.343 86.525 L 355.962 85.786 L 359.655 74.602 L 351.214 70.909 L 359.655 51.284 L 348.471 42.949 L 344.673 18.682 L 334.438 15.939 L 326.947 23.324 L 323.254 16.783 L 312.07 27.967 L 304.579 28.916 L 291.601 10.347 L 274.825 2.856 Z " fill-rule="evenodd" fill="rgb(241,114,35)" mask="url(#_mask_fsTkVBpWhVafN7TUOsh7P6K25dnZ7pgZ)" vector-effect="non-scaling-stroke" stroke-width="3.376" stroke="rgb(93,93,93)" stroke-opacity="0.51459901" stroke-linejoin="miter" stroke-linecap="butt" stroke-miterlimit="4"/><path d=" M 274.825 2.856 L 260.793 9.397 L 258.788 9.713 L 259.21 10.347 L 254.673 14.25 L 254.673 21.531 L 260.582 28.072 L 254.673 38.623 L 249.398 41.999 L 248.659 48.541 L 237.475 49.913 L 238.108 57.087 L 242.118 58.459 L 232.833 71.648 L 218.378 72.914 L 217.745 82.832 L 211.731 88.74 L 208.46 97.392 L 195.271 98.025 L 200.547 117.755 L 206.139 129.994 L 214.58 129.678 L 215.107 133.16 L 210.359 138.541 L 213.946 145.715 L 219.327 145.715 L 225.236 152.257 L 230.617 152.257 L 234.837 147.509 L 235.998 148.775 L 235.998 154.684 L 237.792 162.491 L 250.347 163.019 L 260.476 152.257 L 265.857 151.729 L 267.651 154.684 L 270.605 161.225 L 275.459 161.225 L 277.252 149.303 L 287.381 150.569 L 293.29 143.394 L 302.891 145.715 L 317.24 139.174 L 317.346 140.44 L 321.988 135.586 L 315.974 126.618 L 313.653 114.696 L 321.355 108.154 L 324.942 109.315 L 335.704 97.392 L 341.613 98.025 L 344.039 94.965 L 355.962 94.965 L 360.183 90.217 L 361.343 86.525 L 355.962 85.786 L 359.655 74.602 L 351.214 70.909 L 359.655 51.284 L 348.471 42.949 L 344.673 18.682 L 334.438 15.939 L 326.947 23.324 L 323.254 16.783 L 312.07 27.967 L 304.579 28.916 L 291.601 10.347 L 274.825 2.856 Z " fill-rule="evenodd" fill="rgb(241,114,35)"/><circle vector-effect="non-scaling-stroke" cx="256.12432638998075" cy="115.67809714782948" r="7.913210969695783" fill="rgb(0,0,0)"/><text transform="matrix(3.376,0,0,3.376,252.286,90.986)" style="font-family:'Open Sans';font-weight:400;font-size:8px;font-style:italic;font-variant-ligatures:none;fill:[Object GRGBColor];stroke:none;">Lot</text></g><g><mask id="_mask_4vRyUX87eBzWkSg6Txnbgd3npREa69do" x="-200%" y="-200%" width="400%" height="400%"><rect x="-200%" y="-200%" width="400%" height="400%" style="fill:white;"/><path d=" M 44.393 277.075 L 37.851 280.556 L 39.012 280.662 L 50.196 299.126 L 42.916 305.773 L 48.191 313.686 L 56.104 325.503 L 49.563 334.05 L 39.012 357.789 L 21.181 372.983 L 25.823 382.267 L 21.814 384.905 L 12.001 382.9 L 9.258 404.635 L 3.983 408.645 L 2.928 422.256 L 4.616 421.306 L 15.8 427.953 L 28.988 437.871 L 30.254 445.784 L 40.805 454.33 L 49.457 454.33 L 71.192 445.046 L 80.371 455.597 L 92.927 458.973 L 97.57 451.06 L 103.478 453.697 L 116.245 454.541 L 115.401 419.09 L 122.048 419.09 L 127.956 422.045 L 132.177 417.93 L 131.544 411.388 L 139.879 406.535 L 136.925 394.084 L 133.337 391.025 L 126.163 393.451 L 129.75 387.437 L 127.956 379.735 L 117.194 371.927 L 117.827 366.547 L 123.841 356.418 L 131.544 353.463 L 131.544 349.243 L 136.292 342.068 L 139.457 337.637 L 127.429 331.412 L 111.286 331.412 L 108.859 326.558 L 100.524 326.558 L 98.097 321.177 L 90.395 321.177 L 87.968 323.604 L 79 323.604 L 78.472 318.223 L 71.298 313.475 L 73.724 311.049 L 74.885 305.14 L 73.091 303.346 L 69.504 293.745 L 61.696 292.584 L 53.994 288.364 L 54.522 277.074 L 44.393 277.075 Z " fill-rule="evenodd" fill="black" stroke="none"/></mask><path d=" M 44.393 277.075 L 37.851 280.556 L 39.012 280.662 L 50.196 299.126 L 42.916 305.773 L 48.191 313.686 L 56.104 325.503 L 49.563 334.05 L 39.012 357.789 L 21.181 372.983 L 25.823 382.267 L 21.814 384.905 L 12.001 382.9 L 9.258 404.635 L 3.983 408.645 L 2.928 422.256 L 4.616 421.306 L 15.8 427.953 L 28.988 437.871 L 30.254 445.784 L 40.805 454.33 L 49.457 454.33 L 71.192 445.046 L 80.371 455.597 L 92.927 458.973 L 97.57 451.06 L 103.478 453.697 L 116.245 454.541 L 115.401 419.09 L 122.048 419.09 L 127.956 422.045 L 132.177 417.93 L 131.544 411.388 L 139.879 406.535 L 136.925 394.084 L 133.337 391.025 L 126.163 393.451 L 129.75 387.437 L 127.956 379.735 L 117.194 371.927 L 117.827 366.547 L 123.841 356.418 L 131.544 353.463 L 131.544 349.243 L 136.292 342.068 L 139.457 337.637 L 127.429 331.412 L 111.286 331.412 L 108.859 326.558 L 100.524 326.558 L 98.097 321.177 L 90.395 321.177 L 87.968 323.604 L 79 323.604 L 78.472 318.223 L 71.298 313.475 L 73.724 311.049 L 74.885 305.14 L 73.091 303.346 L 69.504 293.745 L 61.696 292.584 L 53.994 288.364 L 54.522 277.074 L 44.393 277.075 Z " fill-rule="evenodd" fill="rgb(241,114,35)" mask="url(#_mask_4vRyUX87eBzWkSg6Txnbgd3npREa69do)" vector-effect="non-scaling-stroke" stroke-width="3.376" stroke="rgb(93,93,93)" stroke-opacity="0.51459901" stroke-linejoin="miter" stroke-linecap="butt" stroke-miterlimit="4"/><path d=" M 44.393 277.075 L 37.851 280.556 L 39.012 280.662 L 50.196 299.126 L 42.916 305.773 L 48.191 313.686 L 56.104 325.503 L 49.563 334.05 L 39.012 357.789 L 21.181 372.983 L 25.823 382.267 L 21.814 384.905 L 12.001 382.9 L 9.258 404.635 L 3.983 408.645 L 2.928 422.256 L 4.616 421.306 L 15.8 427.953 L 28.988 437.871 L 30.254 445.784 L 40.805 454.33 L 49.457 454.33 L 71.192 445.046 L 80.371 455.597 L 92.927 458.973 L 97.57 451.06 L 103.478 453.697 L 116.245 454.541 L 115.401 419.09 L 122.048 419.09 L 127.956 422.045 L 132.177 417.93 L 131.544 411.388 L 139.879 406.535 L 136.925 394.084 L 133.337 391.025 L 126.163 393.451 L 129.75 387.437 L 127.956 379.735 L 117.194 371.927 L 117.827 366.547 L 123.841 356.418 L 131.544 353.463 L 131.544 349.243 L 136.292 342.068 L 139.457 337.637 L 127.429 331.412 L 111.286 331.412 L 108.859 326.558 L 100.524 326.558 L 98.097 321.177 L 90.395 321.177 L 87.968 323.604 L 79 323.604 L 78.472 318.223 L 71.298 313.475 L 73.724 311.049 L 74.885 305.14 L 73.091 303.346 L 69.504 293.745 L 61.696 292.584 L 53.994 288.364 L 54.522 277.074 L 44.393 277.075 Z " fill-rule="evenodd" fill="rgb(241,114,35)"/><circle vector-effect="non-scaling-stroke" cx="60.281850743173436" cy="348.82230980340273" r="7.913210969695783" fill="rgb(0,0,0)"/><text transform="matrix(3.376,0,0,3.376,31.537,387.421)" style="font-family:'Open Sans';font-weight:400;font-size:8px;font-style:italic;font-variant-ligatures:none;fill:[Object GRGBColor];stroke:none;">Hautes-</text><text transform="matrix(3.376,0,0,3.376,24.369,414.431)" style="font-family:'Open Sans';font-weight:400;font-size:8px;font-style:italic;font-variant-ligatures:none;fill:[Object GRGBColor];stroke:none;">Pyrénées</text></g><g><mask id="_mask_tdSJNercllaKW4jzXsYxm6NUizwcYJQf" x="-200%" y="-200%" width="400%" height="400%"><rect x="-200%" y="-200%" width="400%" height="400%" style="fill:white;"/><path d=" M 240.218 337.321 L 235.998 340.275 L 234.204 343.862 L 242.54 349.876 L 244.966 354.097 L 243.173 357.578 L 228.823 358.845 L 224.708 364.753 L 225.236 366.547 L 230.617 368.34 L 233.677 372.561 L 230.089 378.469 L 225.869 377.942 L 219.327 371.928 L 211.52 369.606 L 203.818 370.134 L 190.101 378.469 L 190.629 389.864 L 194.216 392.291 L 191.895 401.154 L 176.28 405.374 L 170.371 412.549 L 170.371 424.471 L 172.798 428.059 L 167.206 433.229 L 170.793 435.233 L 191.156 439.137 L 199.808 439.137 L 210.992 453.698 L 239.374 452.326 L 250.558 470.157 L 260.476 466.148 L 289.491 470.157 L 291.601 482.291 L 312.07 477.543 L 319.561 471.001 L 330.745 468.152 L 333.489 462.56 L 357.756 460.767 L 342.879 443.041 L 330.745 449.583 L 309.327 431.857 L 313.969 425.316 L 330.745 425.316 L 328.846 409.489 L 328.846 397.355 L 326.103 374.882 L 293.395 359.056 L 295.294 353.464 L 289.069 346.5 L 283.794 348.716 L 276.619 349.876 L 263.43 343.862 L 259.843 342.702 L 265.224 349.243 L 262.903 354.624 L 251.508 353.464 L 250.98 347.45 L 244.333 338.481 L 240.218 337.321 Z " fill-rule="evenodd" fill="black" stroke="none"/></mask><path d=" M 240.218 337.321 L 235.998 340.275 L 234.204 343.862 L 242.54 349.876 L 244.966 354.097 L 243.173 357.578 L 228.823 358.845 L 224.708 364.753 L 225.236 366.547 L 230.617 368.34 L 233.677 372.561 L 230.089 378.469 L 225.869 377.942 L 219.327 371.928 L 211.52 369.606 L 203.818 370.134 L 190.101 378.469 L 190.629 389.864 L 194.216 392.291 L 191.895 401.154 L 176.28 405.374 L 170.371 412.549 L 170.371 424.471 L 172.798 428.059 L 167.206 433.229 L 170.793 435.233 L 191.156 439.137 L 199.808 439.137 L 210.992 453.698 L 239.374 452.326 L 250.558 470.157 L 260.476 466.148 L 289.491 470.157 L 291.601 482.291 L 312.07 477.543 L 319.561 471.001 L 330.745 468.152 L 333.489 462.56 L 357.756 460.767 L 342.879 443.041 L 330.745 449.583 L 309.327 431.857 L 313.969 425.316 L 330.745 425.316 L 328.846 409.489 L 328.846 397.355 L 326.103 374.882 L 293.395 359.056 L 295.294 353.464 L 289.069 346.5 L 283.794 348.716 L 276.619 349.876 L 263.43 343.862 L 259.843 342.702 L 265.224 349.243 L 262.903 354.624 L 251.508 353.464 L 250.98 347.45 L 244.333 338.481 L 240.218 337.321 Z " fill-rule="evenodd" fill="rgb(241,114,35)" mask="url(#_mask_tdSJNercllaKW4jzXsYxm6NUizwcYJQf)" vector-effect="non-scaling-stroke" stroke-width="3.376" stroke="rgb(93,93,93)" stroke-opacity="0.51459901" stroke-linejoin="miter" stroke-linecap="butt" stroke-miterlimit="4"/><path d=" M 240.218 337.321 L 235.998 340.275 L 234.204 343.862 L 242.54 349.876 L 244.966 354.097 L 243.173 357.578 L 228.823 358.845 L 224.708 364.753 L 225.236 366.547 L 230.617 368.34 L 233.677 372.561 L 230.089 378.469 L 225.869 377.942 L 219.327 371.928 L 211.52 369.606 L 203.818 370.134 L 190.101 378.469 L 190.629 389.864 L 194.216 392.291 L 191.895 401.154 L 176.28 405.374 L 170.371 412.549 L 170.371 424.471 L 172.798 428.059 L 167.206 433.229 L 170.793 435.233 L 191.156 439.137 L 199.808 439.137 L 210.992 453.698 L 239.374 452.326 L 250.558 470.157 L 260.476 466.148 L 289.491 470.157 L 291.601 482.291 L 312.07 477.543 L 319.561 471.001 L 330.745 468.152 L 333.489 462.56 L 357.756 460.767 L 342.879 443.041 L 330.745 449.583 L 309.327 431.857 L 313.969 425.316 L 330.745 425.316 L 328.846 409.489 L 328.846 397.355 L 326.103 374.882 L 293.395 359.056 L 295.294 353.464 L 289.069 346.5 L 283.794 348.716 L 276.619 349.876 L 263.43 343.862 L 259.843 342.702 L 265.224 349.243 L 262.903 354.624 L 251.508 353.464 L 250.98 347.45 L 244.333 338.481 L 240.218 337.321 Z " fill-rule="evenodd" fill="rgb(241,114,35)"/><circle vector-effect="non-scaling-stroke" cx="277.5739815539175" cy="404.7771099137276" r="7.913210969695797" fill="rgb(0,0,0)"/><text transform="matrix(3.376,0,0,3.376,216.237,434.416)" style="font-family:'Open Sans';font-weight:400;font-size:8px;font-style:italic;font-variant-ligatures:none;fill:[Object GRGBColor];stroke:none;">Ariège</text></g><g><mask id="_mask_1GTsYDxHwqyASdqW8uYyL2sPq6jvRPvj" x="-200%" y="-200%" width="400%" height="400%"><rect x="-200%" y="-200%" width="400%" height="400%" style="fill:white;"/><path d=" M 353.641 170.194 L 342.246 170.827 L 334.544 178.529 L 332.117 173.148 L 326.736 176.208 L 326.209 174.942 L 323.149 178.001 L 313.653 181.589 L 305.845 186.337 L 285.587 188.763 L 283.161 198.892 L 290.968 198.892 L 283.161 206.067 L 279.573 212.608 L 268.284 212.608 L 274.192 219.15 L 270.816 224.742 L 271.871 225.164 L 274.825 234.027 L 282 242.468 L 283.794 243.628 L 284.321 251.963 L 290.335 261.565 L 295.083 266.946 L 295.083 273.487 L 290.335 275.281 L 293.923 280.662 L 309.433 287.204 L 312.387 291.424 L 320.195 300.92 L 329.163 303.347 L 336.337 302.08 L 336.337 310.521 L 336.126 314.847 L 340.03 314.32 L 339.081 318.962 L 352.164 318.962 L 364.298 322.76 L 365.247 310.627 L 370.839 310.627 L 391.308 314.32 L 410.933 314.32 L 425.81 309.677 L 429.608 297.544 L 419.373 288.153 L 422.117 278.868 L 427.709 270.533 L 436.994 276.969 L 461.261 268.634 L 465.059 261.143 L 452.714 253.23 L 447.333 251.963 L 443.746 256.711 L 436.572 258.505 L 425.176 252.596 L 413.254 237.087 L 413.254 230.545 L 406.712 218.517 L 407.345 213.136 L 401.964 199.42 L 391.835 194.672 L 384.661 182.116 L 364.931 178.529 L 353.641 170.194 Z " fill-rule="evenodd" fill="black" stroke="none"/></mask><path d=" M 353.641 170.194 L 342.246 170.827 L 334.544 178.529 L 332.117 173.148 L 326.736 176.208 L 326.209 174.942 L 323.149 178.001 L 313.653 181.589 L 305.845 186.337 L 285.587 188.763 L 283.161 198.892 L 290.968 198.892 L 283.161 206.067 L 279.573 212.608 L 268.284 212.608 L 274.192 219.15 L 270.816 224.742 L 271.871 225.164 L 274.825 234.027 L 282 242.468 L 283.794 243.628 L 284.321 251.963 L 290.335 261.565 L 295.083 266.946 L 295.083 273.487 L 290.335 275.281 L 293.923 280.662 L 309.433 287.204 L 312.387 291.424 L 320.195 300.92 L 329.163 303.347 L 336.337 302.08 L 336.337 310.521 L 336.126 314.847 L 340.03 314.32 L 339.081 318.962 L 352.164 318.962 L 364.298 322.76 L 365.247 310.627 L 370.839 310.627 L 391.308 314.32 L 410.933 314.32 L 425.81 309.677 L 429.608 297.544 L 419.373 288.153 L 422.117 278.868 L 427.709 270.533 L 436.994 276.969 L 461.261 268.634 L 465.059 261.143 L 452.714 253.23 L 447.333 251.963 L 443.746 256.711 L 436.572 258.505 L 425.176 252.596 L 413.254 237.087 L 413.254 230.545 L 406.712 218.517 L 407.345 213.136 L 401.964 199.42 L 391.835 194.672 L 384.661 182.116 L 364.931 178.529 L 353.641 170.194 Z " fill-rule="evenodd" fill="rgb(241,114,35)" mask="url(#_mask_1GTsYDxHwqyASdqW8uYyL2sPq6jvRPvj)" vector-effect="non-scaling-stroke" stroke-width="3.376" stroke="rgb(93,93,93)" stroke-opacity="0.51459901" stroke-linejoin="miter" stroke-linecap="butt" stroke-miterlimit="4"/><path d=" M 353.641 170.194 L 342.246 170.827 L 334.544 178.529 L 332.117 173.148 L 326.736 176.208 L 326.209 174.942 L 323.149 178.001 L 313.653 181.589 L 305.845 186.337 L 285.587 188.763 L 283.161 198.892 L 290.968 198.892 L 283.161 206.067 L 279.573 212.608 L 268.284 212.608 L 274.192 219.15 L 270.816 224.742 L 271.871 225.164 L 274.825 234.027 L 282 242.468 L 283.794 243.628 L 284.321 251.963 L 290.335 261.565 L 295.083 266.946 L 295.083 273.487 L 290.335 275.281 L 293.923 280.662 L 309.433 287.204 L 312.387 291.424 L 320.195 300.92 L 329.163 303.347 L 336.337 302.08 L 336.337 310.521 L 336.126 314.847 L 340.03 314.32 L 339.081 318.962 L 352.164 318.962 L 364.298 322.76 L 365.247 310.627 L 370.839 310.627 L 391.308 314.32 L 410.933 314.32 L 425.81 309.677 L 429.608 297.544 L 419.373 288.153 L 422.117 278.868 L 427.709 270.533 L 436.994 276.969 L 461.261 268.634 L 465.059 261.143 L 452.714 253.23 L 447.333 251.963 L 443.746 256.711 L 436.572 258.505 L 425.176 252.596 L 413.254 237.087 L 413.254 230.545 L 406.712 218.517 L 407.345 213.136 L 401.964 199.42 L 391.835 194.672 L 384.661 182.116 L 364.931 178.529 L 353.641 170.194 Z " fill-rule="evenodd" fill="rgb(241,114,35)"/><circle vector-effect="non-scaling-stroke" cx="349.3812011394066" cy="222.92299666416739" r="7.913210969695797" fill="rgb(0,0,0)"/><text transform="matrix(3.376,0,0,3.376,330.841,264.19)" style="font-family:'Open Sans';font-weight:400;font-size:8px;font-style:italic;font-variant-ligatures:none;fill:[Object GRGBColor];stroke:none;">Tarn</text></g><g><mask id="_mask_2j47nf5mqVsHFUuAOkf80up0q1wDLTx3" x="-200%" y="-200%" width="400%" height="400%"><rect x="-200%" y="-200%" width="400%" height="400%" style="fill:white;"/><path d=" M 182.716 129.045 L 178.073 144.133 L 185.353 152.046 L 182.083 164.602 L 178.073 169.244 L 180.817 177.157 L 168.261 179.795 L 158.343 182.433 L 160.981 191.612 L 156.022 193.089 L 158.976 195.832 L 168.577 195.832 L 173.325 193.511 L 177.546 195.832 L 169.738 199.42 L 169.738 205.434 L 162.563 210.815 L 162.563 218.517 L 175.752 219.15 L 179.867 223.37 L 179.867 231.706 L 184.72 236.454 L 180.5 242.995 L 182.294 246.582 L 190.629 242.995 L 207.932 242.995 L 212.786 240.041 L 218.694 240.041 L 225.236 247.849 L 240.218 243.628 L 244.333 237.087 L 238.425 234.027 L 242.54 232.339 L 243.806 226.325 L 250.347 226.958 L 253.935 231.073 L 256.889 226.325 L 266.49 222.737 L 270.816 224.742 L 274.192 219.15 L 268.284 212.608 L 279.573 212.608 L 283.161 206.067 L 290.968 198.892 L 283.161 198.892 L 285.587 188.763 L 305.845 186.337 L 313.653 181.589 L 323.149 178.001 L 326.209 174.942 L 322.516 165.446 L 327.897 154.684 L 318.401 154.051 L 317.24 139.174 L 302.891 145.715 L 293.29 143.394 L 287.381 150.569 L 277.252 149.303 L 275.459 161.225 L 270.605 161.225 L 267.651 154.684 L 265.857 151.729 L 260.476 152.257 L 250.347 163.019 L 237.792 162.491 L 235.998 154.684 L 235.998 148.775 L 234.837 147.509 L 230.617 152.257 L 225.236 152.257 L 219.327 145.715 L 213.946 145.715 L 210.359 138.541 L 215.107 133.16 L 214.58 129.678 L 206.139 129.994 L 207.194 132.315 L 192.634 134.953 L 182.716 129.045 Z " fill-rule="evenodd" fill="black" stroke="none"/></mask><path d=" M 182.716 129.045 L 178.073 144.133 L 185.353 152.046 L 182.083 164.602 L 178.073 169.244 L 180.817 177.157 L 168.261 179.795 L 158.343 182.433 L 160.981 191.612 L 156.022 193.089 L 158.976 195.832 L 168.577 195.832 L 173.325 193.511 L 177.546 195.832 L 169.738 199.42 L 169.738 205.434 L 162.563 210.815 L 162.563 218.517 L 175.752 219.15 L 179.867 223.37 L 179.867 231.706 L 184.72 236.454 L 180.5 242.995 L 182.294 246.582 L 190.629 242.995 L 207.932 242.995 L 212.786 240.041 L 218.694 240.041 L 225.236 247.849 L 240.218 243.628 L 244.333 237.087 L 238.425 234.027 L 242.54 232.339 L 243.806 226.325 L 250.347 226.958 L 253.935 231.073 L 256.889 226.325 L 266.49 222.737 L 270.816 224.742 L 274.192 219.15 L 268.284 212.608 L 279.573 212.608 L 283.161 206.067 L 290.968 198.892 L 283.161 198.892 L 285.587 188.763 L 305.845 186.337 L 313.653 181.589 L 323.149 178.001 L 326.209 174.942 L 322.516 165.446 L 327.897 154.684 L 318.401 154.051 L 317.24 139.174 L 302.891 145.715 L 293.29 143.394 L 287.381 150.569 L 277.252 149.303 L 275.459 161.225 L 270.605 161.225 L 267.651 154.684 L 265.857 151.729 L 260.476 152.257 L 250.347 163.019 L 237.792 162.491 L 235.998 154.684 L 235.998 148.775 L 234.837 147.509 L 230.617 152.257 L 225.236 152.257 L 219.327 145.715 L 213.946 145.715 L 210.359 138.541 L 215.107 133.16 L 214.58 129.678 L 206.139 129.994 L 207.194 132.315 L 192.634 134.953 L 182.716 129.045 Z " fill-rule="evenodd" fill="rgb(241,114,35)" mask="url(#_mask_2j47nf5mqVsHFUuAOkf80up0q1wDLTx3)" vector-effect="non-scaling-stroke" stroke-width="3.376" stroke="rgb(93,93,93)" stroke-opacity="0.51459901" stroke-linejoin="miter" stroke-linecap="butt" stroke-miterlimit="4"/><path d=" M 182.716 129.045 L 178.073 144.133 L 185.353 152.046 L 182.083 164.602 L 178.073 169.244 L 180.817 177.157 L 168.261 179.795 L 158.343 182.433 L 160.981 191.612 L 156.022 193.089 L 158.976 195.832 L 168.577 195.832 L 173.325 193.511 L 177.546 195.832 L 169.738 199.42 L 169.738 205.434 L 162.563 210.815 L 162.563 218.517 L 175.752 219.15 L 179.867 223.37 L 179.867 231.706 L 184.72 236.454 L 180.5 242.995 L 182.294 246.582 L 190.629 242.995 L 207.932 242.995 L 212.786 240.041 L 218.694 240.041 L 225.236 247.849 L 240.218 243.628 L 244.333 237.087 L 238.425 234.027 L 242.54 232.339 L 243.806 226.325 L 250.347 226.958 L 253.935 231.073 L 256.889 226.325 L 266.49 222.737 L 270.816 224.742 L 274.192 219.15 L 268.284 212.608 L 279.573 212.608 L 283.161 206.067 L 290.968 198.892 L 283.161 198.892 L 285.587 188.763 L 305.845 186.337 L 313.653 181.589 L 323.149 178.001 L 326.209 174.942 L 322.516 165.446 L 327.897 154.684 L 318.401 154.051 L 317.24 139.174 L 302.891 145.715 L 293.29 143.394 L 287.381 150.569 L 277.252 149.303 L 275.459 161.225 L 270.605 161.225 L 267.651 154.684 L 265.857 151.729 L 260.476 152.257 L 250.347 163.019 L 237.792 162.491 L 235.998 154.684 L 235.998 148.775 L 234.837 147.509 L 230.617 152.257 L 225.236 152.257 L 219.327 145.715 L 213.946 145.715 L 210.359 138.541 L 215.107 133.16 L 214.58 129.678 L 206.139 129.994 L 207.194 132.315 L 192.634 134.953 L 182.716 129.045 Z " fill-rule="evenodd" fill="rgb(241,114,35)"/><circle vector-effect="non-scaling-stroke" cx="243.06816134686005" cy="203.34043725115998" r="7.913210969695768" fill="rgb(0,0,0)"/><text transform="matrix(3.376,0,0,3.376,210.755,164.683)" style="font-family:'Open Sans';font-weight:400;font-size:8px;font-style:italic;font-variant-ligatures:none;fill:[Object GRGBColor];stroke:none;">Tarn-et-</text><text transform="matrix(3.376,0,0,3.376,205.777,191.694)" style="font-family:'Open Sans';font-weight:400;font-size:8px;font-style:italic;font-variant-ligatures:none;fill:[Object GRGBColor];stroke:none;">Garonne</text></g></g></svg>