<?xml version="1.0" encoding="UTF-8" standalone="no"?><!-- Generator: Gravit.io --><svg xmlns="http://www.w3.org/2000/svg" xmlns:xlink="http://www.w3.org/1999/xlink" style="isolation:isolate" viewBox="0 0 130 24" width="130pt" height="24pt"><defs><clipPath id="_clipPath_DM96TU6kLVDWOvJ0vOg5iaNSyR4KHadk"><rect width="130" height="24"/></clipPath></defs><g clip-path="url(#_clipPath_DM96TU6kLVDWOvJ0vOg5iaNSyR4KHadk)"><g><g><ellipse vector-effect="non-scaling-stroke" cx="1.6662008593374804" cy="12.000000000000007" rx="1.6662008593374802" ry="1.6363636363636367" fill="rgb(241,114,35)"/><ellipse vector-effect="non-scaling-stroke" cx="6.3337991406625225" cy="1.6363636363636416" rx="1.6662008593374806" ry="1.6363636363636367" fill="rgb(241,114,35)"/><ellipse vector-effect="non-scaling-stroke" cx="6.3337991406625225" cy="22.363636363636367" rx="1.6662008593374806" ry="1.6363636363636367" fill="rgb(241,114,35)"/><path d=" M 7.742 22.021 Q 9.097 14.334 3.332 12 Q 7.275 14.969 7.742 22.021 Z " fill="rgb(241,114,35)"/><path d=" M 7.742 1.979 Q 9.097 9.666 3.332 12 Q 7.275 9.031 7.742 1.979 Z " fill="rgb(241,114,35)"/></g></g><g><g><ellipse vector-effect="non-scaling-stroke" cx="128.3337991406625" cy="12.000000000000005" rx="1.6662008593374864" ry="1.6363636363636367" fill="rgb(241,114,35)"/><ellipse vector-effect="non-scaling-stroke" cx="123.6662008593375" cy="1.636363636363641" rx="1.6662008593374793" ry="1.6363636363636358" fill="rgb(241,114,35)"/><ellipse vector-effect="non-scaling-stroke" cx="123.6662008593375" cy="22.36363636363636" rx="1.6662008593374793" ry="1.6363636363636367" fill="rgb(241,114,35)"/><path d=" M 122.258 22.021 Q 120.903 14.334 126.668 12 Q 122.725 14.969 122.258 22.021 Z " fill="rgb(241,114,35)"/><path d=" M 122.258 1.979 Q 120.903 9.666 126.668 12 Q 122.725 9.031 122.258 1.979 Z " fill="rgb(241,114,35)"/></g></g><g><path d=" M 74.249 1.349 L 74.249 1.349 L 74.249 1.349 Q 72.801 1.349 71.842 4.165 L 71.842 4.165 L 71.842 4.165 Q 70.882 6.982 70.882 11.464 L 70.882 11.464 L 70.882 11.464 Q 70.882 16.701 71.892 19.676 L 71.892 19.676 L 71.892 19.676 Q 72.902 22.651 74.316 22.651 L 74.316 22.651 L 74.316 22.651 Q 75.158 22.651 75.982 21.283 L 75.982 21.283 L 75.982 21.283 Q 76.807 19.914 77.043 18.367 L 77.043 18.367 L 77.447 18.843 L 77.447 18.843 Q 77.06 21.025 76.226 22.512 L 76.226 22.512 L 76.226 22.512 Q 75.393 24 73.979 24 L 73.979 24 L 73.979 24 Q 71.741 24 70.436 20.569 L 70.436 20.569 L 70.436 20.569 Q 69.132 17.137 69.132 12.337 L 69.132 12.337 L 69.132 12.337 Q 69.132 6.783 70.638 3.392 L 70.638 3.392 L 70.638 3.392 Q 72.145 0 74.232 0 L 74.232 0 L 74.232 0 Q 74.72 0 75.36 0.595 L 75.36 0.595 L 75.36 0.595 Q 75.999 1.19 76.1 1.19 L 76.1 1.19 L 76.1 1.19 Q 76.302 1.19 76.302 0.397 L 76.302 0.397 L 76.689 0.397 L 76.858 5.435 L 76.487 5.435 L 76.487 5.435 Q 76.369 3.65 75.822 2.499 L 75.822 2.499 L 75.822 2.499 Q 75.275 1.349 74.249 1.349 Z  M 82.26 23.603 L 78.591 23.603 L 78.591 22.77 L 78.591 22.77 Q 79.5 22.77 79.651 21.977 L 79.651 21.977 L 79.651 2.023 L 79.651 2.023 Q 79.5 1.23 78.591 1.23 L 78.591 1.23 L 78.591 0.397 L 82.26 0.397 L 82.26 1.23 L 82.26 1.23 Q 81.351 1.23 81.2 2.023 L 81.2 2.023 L 81.2 21.977 L 81.2 21.977 Q 81.351 22.77 82.26 22.77 L 82.26 22.77 L 82.26 23.603 Z  M 86.367 23.603 L 83.674 23.603 L 83.674 22.77 L 83.674 22.77 Q 84.583 22.77 84.734 21.977 L 84.734 21.977 L 84.734 2.023 L 84.734 2.023 Q 84.583 1.23 83.674 1.23 L 83.674 1.23 L 83.674 0.397 L 86.131 0.397 L 89.717 18.843 L 93.302 0.397 L 95.793 0.397 L 95.793 1.23 L 95.793 1.23 Q 94.884 1.23 94.732 2.023 L 94.732 2.023 L 94.732 21.977 L 94.732 21.977 Q 94.884 22.77 95.793 22.77 L 95.793 22.77 L 95.793 23.603 L 92.123 23.603 L 92.123 22.77 L 92.123 22.77 Q 93.032 22.77 93.184 21.977 L 93.184 21.977 L 93.184 4.165 L 89.414 23.603 L 89.161 23.603 L 85.307 3.927 L 85.307 21.977 L 85.307 21.977 Q 85.458 22.77 86.367 22.77 L 86.367 22.77 L 86.367 23.603 Z  M 99.899 23.603 L 97.206 23.603 L 97.206 22.77 L 97.206 22.77 Q 98.115 22.77 98.267 21.977 L 98.267 21.977 L 98.267 2.023 L 98.267 2.023 Q 98.115 1.23 97.206 1.23 L 97.206 1.23 L 97.206 0.397 L 99.664 0.397 L 103.249 18.843 L 106.834 0.397 L 109.325 0.397 L 109.325 1.23 L 109.325 1.23 Q 108.416 1.23 108.264 2.023 L 108.264 2.023 L 108.264 21.977 L 108.264 21.977 Q 108.416 22.77 109.325 22.77 L 109.325 22.77 L 109.325 23.603 L 105.656 23.603 L 105.656 22.77 L 105.656 22.77 Q 106.564 22.77 106.716 21.977 L 106.716 21.977 L 106.716 4.165 L 102.946 23.603 L 102.693 23.603 L 98.839 3.927 L 98.839 21.977 L 98.839 21.977 Q 98.99 22.77 99.899 22.77 L 99.899 22.77 L 99.899 23.603 Z  M 112.455 11.702 L 112.455 11.702 L 112.455 11.702 Q 112.455 14.321 112.767 16.721 L 112.767 16.721 L 112.767 16.721 Q 113.078 19.121 113.793 20.886 L 113.793 20.886 L 113.793 20.886 Q 114.509 22.651 115.502 22.651 L 115.502 22.651 L 115.502 22.651 Q 116.495 22.651 117.176 20.985 L 117.176 20.985 L 117.176 20.985 Q 117.858 19.319 118.136 17.078 L 118.136 17.078 L 118.136 17.078 Q 118.414 14.836 118.414 12.337 L 118.414 12.337 L 118.414 12.337 Q 118.414 9.759 118.094 7.319 L 118.094 7.319 L 118.094 7.319 Q 117.774 4.879 117.059 3.114 L 117.059 3.114 L 117.059 3.114 Q 116.343 1.349 115.367 1.349 L 115.367 1.349 L 115.367 1.349 Q 114.61 1.349 114.029 2.301 L 114.029 2.301 L 114.029 2.301 Q 113.448 3.253 113.12 4.82 L 113.12 4.82 L 113.12 4.82 Q 112.792 6.387 112.624 8.132 L 112.624 8.132 L 112.624 8.132 Q 112.455 9.878 112.455 11.702 Z  M 110.772 12.02 L 110.772 12.02 L 110.772 12.02 Q 110.772 7.061 112.085 3.531 L 112.085 3.531 L 112.085 3.531 Q 113.398 0 115.434 0 L 115.434 0 L 115.434 0 Q 117.471 0 118.784 3.531 L 118.784 3.531 L 118.784 3.531 Q 120.097 7.061 120.097 12.02 L 120.097 12.02 L 120.097 12.02 Q 120.097 16.979 118.775 20.489 L 118.775 20.489 L 118.775 20.489 Q 117.454 24 115.434 24 L 115.434 24 L 115.434 24 Q 113.381 24 112.077 20.509 L 112.077 20.509 L 112.077 20.509 Q 110.772 17.018 110.772 12.02 Z " fill="rgb(0,0,0)"/><path d=" M 50.601 11.702 L 50.601 11.702 L 50.601 11.702 Q 50.601 14.321 50.912 16.721 L 50.912 16.721 L 50.912 16.721 Q 51.224 19.121 51.939 20.886 L 51.939 20.886 L 51.939 20.886 Q 52.654 22.651 53.647 22.651 L 53.647 22.651 L 53.647 22.651 Q 54.64 22.651 55.322 20.985 L 55.322 20.985 L 55.322 20.985 Q 56.004 19.319 56.281 17.078 L 56.281 17.078 L 56.281 17.078 Q 56.559 14.836 56.559 12.337 L 56.559 12.337 L 56.559 12.337 Q 56.559 9.759 56.239 7.319 L 56.239 7.319 L 56.239 7.319 Q 55.92 4.879 55.204 3.114 L 55.204 3.114 L 55.204 3.114 Q 54.489 1.349 53.513 1.349 L 53.513 1.349 L 53.513 1.349 Q 52.755 1.349 52.175 2.301 L 52.175 2.301 L 52.175 2.301 Q 51.594 3.253 51.266 4.82 L 51.266 4.82 L 51.266 4.82 Q 50.938 6.387 50.769 8.132 L 50.769 8.132 L 50.769 8.132 Q 50.601 9.878 50.601 11.702 Z  M 48.918 12.02 L 48.918 12.02 L 48.918 12.02 Q 48.918 7.061 50.231 3.531 L 50.231 3.531 L 50.231 3.531 Q 51.544 0 53.58 0 L 53.58 0 L 53.58 0 Q 55.617 0 56.929 3.531 L 56.929 3.531 L 56.929 3.531 Q 58.242 7.061 58.242 12.02 L 58.242 12.02 L 58.242 12.02 Q 58.242 16.979 56.921 20.489 L 56.921 20.489 L 56.921 20.489 Q 55.6 24 53.58 24 L 53.58 24 L 53.58 24 Q 51.527 24 50.222 20.509 L 50.222 20.509 L 50.222 20.509 Q 48.918 17.018 48.918 12.02 Z  M 64.79 1.349 L 64.79 1.349 L 64.79 1.349 Q 63.342 1.349 62.383 4.165 L 62.383 4.165 L 62.383 4.165 Q 61.423 6.982 61.423 11.464 L 61.423 11.464 L 61.423 11.464 Q 61.423 16.701 62.433 19.676 L 62.433 19.676 L 62.433 19.676 Q 63.443 22.651 64.857 22.651 L 64.857 22.651 L 64.857 22.651 Q 65.698 22.651 66.523 21.283 L 66.523 21.283 L 66.523 21.283 Q 67.348 19.914 67.584 18.367 L 67.584 18.367 L 67.988 18.843 L 67.988 18.843 Q 67.6 21.025 66.767 22.512 L 66.767 22.512 L 66.767 22.512 Q 65.934 24 64.52 24 L 64.52 24 L 64.52 24 Q 62.282 24 60.977 20.569 L 60.977 20.569 L 60.977 20.569 Q 59.673 17.137 59.673 12.337 L 59.673 12.337 L 59.673 12.337 Q 59.673 6.783 61.179 3.392 L 61.179 3.392 L 61.179 3.392 Q 62.686 0 64.773 0 L 64.773 0 L 64.773 0 Q 65.261 0 65.9 0.595 L 65.9 0.595 L 65.9 0.595 Q 66.54 1.19 66.641 1.19 L 66.641 1.19 L 66.641 1.19 Q 66.843 1.19 66.843 0.397 L 66.843 0.397 L 67.23 0.397 L 67.398 5.435 L 67.028 5.435 L 67.028 5.435 Q 66.91 3.65 66.363 2.499 L 66.363 2.499 L 66.363 2.499 Q 65.816 1.349 64.79 1.349 Z " fill="rgb(241,114,35)"/><path d=" M 13.976 23.603 L 9.903 23.603 L 9.903 22.77 L 9.903 22.77 Q 10.812 22.77 10.964 21.977 L 10.964 21.977 L 10.964 2.023 L 10.964 2.023 Q 10.812 1.23 9.903 1.23 L 9.903 1.23 L 9.903 0.397 L 13.774 0.397 L 13.774 0.397 Q 16.013 0.397 17.376 3.59 L 17.376 3.59 L 17.376 3.59 Q 18.74 6.783 18.74 11.94 L 18.74 11.94 L 18.74 11.94 Q 18.74 17.098 17.41 20.35 L 17.41 20.35 L 17.41 20.35 Q 16.08 23.603 13.976 23.603 L 13.976 23.603 Z  M 13.774 1.547 L 12.512 1.547 L 12.512 22.255 L 13.976 22.255 L 13.976 22.255 Q 14.515 22.255 15.028 21.679 L 15.028 21.679 L 15.028 21.679 Q 15.542 21.104 16.013 19.954 L 16.013 19.954 L 16.013 19.954 Q 16.484 18.803 16.77 16.74 L 16.77 16.74 L 16.77 16.74 Q 17.057 14.678 17.057 11.98 L 17.057 11.98 L 17.057 11.98 Q 17.057 6.823 16.072 4.185 L 16.072 4.185 L 16.072 4.185 Q 15.087 1.547 13.774 1.547 L 13.774 1.547 Z  M 23.856 23.603 L 20.187 23.603 L 20.187 22.77 L 20.187 22.77 Q 21.096 22.77 21.247 21.977 L 21.247 21.977 L 21.247 2.023 L 21.247 2.023 Q 21.096 1.23 20.187 1.23 L 20.187 1.23 L 20.187 0.397 L 23.856 0.397 L 23.856 1.23 L 23.856 1.23 Q 22.947 1.23 22.796 2.023 L 22.796 2.023 L 22.796 21.977 L 22.796 21.977 Q 22.947 22.77 23.856 22.77 L 23.856 22.77 L 23.856 23.603 Z  M 33.904 23.603 L 30.218 23.603 L 30.218 22.77 L 30.218 22.77 Q 30.993 22.77 31.195 22.294 L 31.195 22.294 L 30.252 16.225 L 27.021 16.225 L 26.145 22.056 L 26.145 22.056 Q 26.314 22.77 27.189 22.77 L 27.189 22.77 L 27.189 23.603 L 24.429 23.603 L 24.429 22.77 L 24.429 22.77 Q 25.371 22.77 25.489 21.937 L 25.489 21.937 L 28.754 0.397 L 29.562 0.397 L 32.827 21.937 L 32.827 21.937 Q 32.945 22.77 33.904 22.77 L 33.904 22.77 L 33.904 23.603 Z  M 30.05 14.916 L 28.62 5.673 L 27.223 14.916 L 30.05 14.916 Z  M 39.711 1.349 L 39.711 1.349 L 39.711 1.349 Q 38.264 1.349 37.22 4.542 L 37.22 4.542 L 37.22 4.542 Q 36.177 7.736 36.177 12.258 L 36.177 12.258 L 36.177 12.258 Q 36.177 14.995 36.48 17.098 L 36.48 17.098 L 36.48 17.098 Q 36.783 19.2 37.288 20.37 L 37.288 20.37 L 37.288 20.37 Q 37.792 21.54 38.348 22.096 L 38.348 22.096 L 38.348 22.096 Q 38.903 22.651 39.476 22.651 L 39.476 22.651 L 39.476 22.651 Q 40.418 22.651 41.26 21.898 L 41.26 21.898 L 41.26 13.765 L 41.26 13.765 Q 41.108 12.972 40.199 12.972 L 40.199 12.972 L 40.199 12.139 L 43.869 12.139 L 43.869 12.972 L 43.869 12.972 Q 42.96 12.972 42.808 13.765 L 42.808 13.765 L 42.808 20.43 L 42.808 20.43 Q 42.522 21.699 41.655 22.85 L 41.655 22.85 L 41.655 22.85 Q 40.788 24 39.442 24 L 39.442 24 L 39.442 24 Q 37.187 24 35.806 20.549 L 35.806 20.549 L 35.806 20.549 Q 34.426 17.098 34.426 12.337 L 34.426 12.337 L 34.426 12.337 Q 34.426 6.823 36.008 3.412 L 36.008 3.412 L 36.008 3.412 Q 37.591 0 39.694 0 L 39.694 0 L 39.694 0 Q 40.183 0 40.906 0.595 L 40.906 0.595 L 40.906 0.595 Q 41.63 1.19 41.731 1.19 L 41.731 1.19 L 41.731 1.19 Q 41.933 1.19 41.933 0.397 L 41.933 0.397 L 42.32 0.397 L 42.488 5.435 L 42.118 5.435 L 42.118 5.435 Q 42.017 3.689 41.378 2.519 L 41.378 2.519 L 41.378 2.519 Q 40.738 1.349 39.711 1.349 Z " fill="rgb(0,0,0)"/></g></g></svg>